<?xml version="1.0" standalone="no"?>
<!DOCTYPE svg PUBLIC "-//W3C//DTD SVG 20010904//EN"
 "http://www.w3.org/TR/2001/REC-SVG-20010904/DTD/svg10.dtd">
<svg version="1.0" xmlns="http://www.w3.org/2000/svg"
 width="889.000000pt" height="889.000000pt" viewBox="0 0 889.000000 889.000000"
 preserveAspectRatio="xMidYMid meet">
<metadata>
Created by potrace 1.14, written by Peter Selinger 2001-2017
</metadata>
<g transform="translate(0.000000,889.000000) scale(0.100000,-0.100000)"
fill="#000000" stroke="none">
<path d="M4077 8854 c-3 -4 -244 -14 -432 -19 -149 -4 -232 -8 -380 -20 -33
-3 -91 -7 -130 -10 -141 -10 -198 -16 -204 -19 -3 -2 -34 -7 -68 -11 -75 -9
-99 -12 -138 -18 -16 -3 -55 -8 -85 -12 -30 -4 -71 -10 -90 -15 -19 -5 -48
-11 -65 -13 -16 -3 -50 -10 -75 -15 -25 -6 -56 -13 -70 -16 -24 -5 -101 -20
-148 -30 -37 -8 -54 -13 -277 -86 -251 -82 -410 -151 -526 -228 -81 -54 -89
-62 -137 -147 -49 -87 -51 -93 -48 -155 2 -36 9 -85 16 -110 7 -25 14 -56 17
-70 12 -68 37 -149 63 -199 15 -31 30 -74 34 -96 3 -22 7 -49 10 -60 4 -20 11
-68 22 -140 3 -22 8 -43 9 -46 2 -3 7 -28 10 -55 3 -27 10 -69 15 -94 15 -75
21 -115 34 -232 3 -26 8 -62 11 -80 6 -45 14 -112 21 -178 3 -30 7 -66 9 -80
4 -28 11 -81 20 -155 8 -73 16 -137 20 -165 4 -23 12 -83 20 -155 3 -27 30
-222 40 -285 3 -24 15 -111 20 -155 2 -11 6 -40 9 -65 6 -39 17 -124 31 -225
2 -16 7 -52 10 -80 3 -27 8 -61 10 -75 3 -14 7 -45 11 -70 3 -25 7 -61 9 -80
5 -38 20 -150 30 -220 4 -25 8 -58 10 -75 4 -37 34 -271 40 -305 2 -14 7 -50
10 -80 3 -30 8 -73 11 -95 3 -22 7 -51 9 -65 2 -14 6 -43 9 -65 3 -22 8 -60
11 -85 3 -25 10 -76 15 -115 5 -38 12 -92 15 -120 15 -124 23 -182 30 -225 3
-14 6 -45 9 -70 4 -43 31 -257 42 -331 5 -36 8 -64 18 -144 3 -22 8 -56 10
-75 3 -19 8 -56 11 -82 3 -25 11 -95 19 -155 8 -59 17 -128 21 -153 3 -25 7
-56 9 -70 3 -14 7 -50 10 -80 4 -30 8 -66 10 -80 3 -14 7 -50 11 -81 3 -31 8
-67 10 -80 3 -13 8 -44 11 -69 3 -25 10 -72 15 -105 6 -33 11 -139 13 -235 2
-96 8 -208 15 -248 16 -107 75 -277 129 -378 27 -49 67 -124 91 -168 23 -43
81 -124 129 -180 48 -56 106 -125 129 -153 28 -32 105 -92 218 -169 201 -137
192 -132 349 -196 65 -27 133 -55 150 -62 60 -27 142 -56 271 -95 231 -71 269
-82 300 -86 16 -2 46 -6 65 -9 38 -5 122 -17 155 -21 11 -2 42 -6 69 -9 27 -4
52 -8 56 -11 17 -11 101 -14 94 -4 -4 8 0 8 13 0 11 -6 23 -8 25 -5 10 9 82
16 328 29 94 5 191 14 220 20 14 4 36 8 50 11 237 49 319 72 494 141 242 94
476 232 646 380 14 12 76 63 139 115 109 89 118 99 216 251 57 87 106 174 111
195 10 52 10 52 24 102 7 25 13 52 15 60 2 8 10 42 18 75 9 33 18 80 22 105 3
25 8 56 10 70 2 14 7 47 10 74 3 27 8 52 10 55 4 8 18 128 18 161 1 14 -3 52
-7 85 -4 33 -9 70 -11 83 -1 13 3 58 11 100 7 42 16 97 19 122 3 25 8 56 10
70 10 63 25 157 29 180 4 22 21 130 32 203 2 15 6 42 9 60 3 17 8 46 11 62 2
17 6 41 9 55 2 14 7 45 11 70 9 65 12 81 19 125 7 47 13 85 19 123 3 15 12 72
21 127 10 55 19 114 20 130 2 17 15 98 29 180 13 83 27 170 31 195 3 25 8 56
11 70 2 14 6 41 9 60 2 19 11 73 19 120 8 47 17 105 21 130 3 25 10 70 15 100
16 96 19 114 24 155 3 22 8 51 11 65 3 14 8 41 10 60 2 19 6 44 9 56 2 12 7
45 11 75 4 30 8 56 10 59 1 3 6 32 10 65 3 32 8 62 10 65 2 4 7 29 10 56 3 27
9 63 12 79 3 17 7 40 9 52 2 24 13 93 20 128 2 11 7 40 10 65 3 25 12 81 19
125 8 44 17 103 21 130 3 28 7 52 9 55 2 3 6 29 10 59 4 30 9 63 11 75 2 11 6
38 9 61 3 22 8 51 10 65 3 14 7 41 10 60 3 19 10 58 15 85 9 54 23 141 25 165
1 8 4 33 9 55 4 22 9 54 11 72 2 17 9 58 14 90 6 32 13 78 16 103 3 25 7 52
10 60 2 8 6 38 10 65 3 28 8 57 10 65 2 8 6 33 10 55 3 22 10 65 15 95 5 30
12 73 15 95 3 23 7 52 10 65 3 13 7 42 10 65 4 22 15 96 26 165 11 69 22 140
25 159 14 107 20 128 51 169 36 48 103 219 103 263 0 21 5 41 10 44 7 4 7 12
0 25 -6 11 -6 21 -1 24 10 7 12 56 1 56 -4 0 -15 21 -25 48 -43 114 -59 134
-161 207 -54 39 -112 80 -129 92 -16 12 -48 31 -70 42 -69 34 -366 152 -434
172 -207 61 -233 69 -243 69 -4 1 -27 7 -50 16 -39 13 -70 21 -128 29 -22 3
-124 19 -190 30 -14 2 -38 6 -55 9 -16 3 -50 8 -75 11 -25 4 -125 20 -223 36
-98 16 -204 31 -235 34 -155 13 -189 16 -212 20 -89 13 -184 21 -335 30 -66 3
-149 8 -185 11 -126 9 -826 24 -833 18z"/>
</g>
</svg>
